<?xml version="1.0" encoding="UTF-8" standalone="no"?>
<!-- Created with Inkscape (http://www.inkscape.org/) -->

<svg
   width="74.775063mm"
   height="60.226879mm"
   viewBox="0 0 74.775063 60.226879"
   version="1.1"
   id="svg1"
   xmlns="http://www.w3.org/2000/svg"
   xmlns:svg="http://www.w3.org/2000/svg">
  <defs
     id="defs1">
    <clipPath
       clipPathUnits="userSpaceOnUse"
       id="clipPath72-9">
      <path
         d="M 0,792 H 1224 V 0 H 0 Z"
         transform="translate(-976.579,-509.03501)"
         id="path72-8" />
    </clipPath>
    <clipPath
       clipPathUnits="userSpaceOnUse"
       id="clipPath74-4">
      <path
         d="M 0,792 H 1224 V 0 H 0 Z"
         transform="translate(-976.18772,-504.02212)"
         id="path74-3" />
    </clipPath>
    <clipPath
       clipPathUnits="userSpaceOnUse"
       id="clipPath76-9">
      <path
         d="M 0,792 H 1224 V 0 H 0 Z"
         transform="translate(-993.32462,-499.22911)"
         id="path76-9" />
    </clipPath>
    <clipPath
       clipPathUnits="userSpaceOnUse"
       id="clipPath78-6">
      <path
         d="M 0,792 H 1224 V 0 H 0 Z"
         transform="translate(-987.77042,-501.60052)"
         id="path78-6" />
    </clipPath>
    <clipPath
       clipPathUnits="userSpaceOnUse"
       id="clipPath80-8">
      <path
         d="M 0,792 H 1224 V 0 H 0 Z"
         transform="translate(-982.08055,-505.29451)"
         id="path80-8" />
    </clipPath>
    <clipPath
       clipPathUnits="userSpaceOnUse"
       id="clipPath82-2">
      <path
         d="M 0,792 H 1224 V 0 H 0 Z"
         transform="translate(-976.579,-509.03501)"
         id="path82-7" />
    </clipPath>
    <clipPath
       clipPathUnits="userSpaceOnUse"
       id="clipPath84-8">
      <path
         d="M 0,792 H 1224 V 0 H 0 Z"
         transform="translate(-927.4291,-494.04981)"
         id="path84-0" />
    </clipPath>
    <clipPath
       clipPathUnits="userSpaceOnUse"
       id="clipPath86-9">
      <path
         d="M 0,792 H 1224 V 0 H 0 Z"
         transform="translate(-927.4291,-477.79611)"
         id="path86-6" />
    </clipPath>
    <clipPath
       clipPathUnits="userSpaceOnUse"
       id="clipPath88-2">
      <path
         d="M 0,792 H 1224 V 0 H 0 Z"
         transform="translate(-923.47112,-486.08301)"
         id="path88-5" />
    </clipPath>
    <clipPath
       clipPathUnits="userSpaceOnUse"
       id="clipPath90-6">
      <path
         d="M 0,792 H 1224 V 0 H 0 Z"
         transform="translate(-919.4842,-494.53091)"
         id="path90-3" />
    </clipPath>
    <clipPath
       clipPathUnits="userSpaceOnUse"
       id="clipPath92-0">
      <path
         d="M 0,792 H 1224 V 0 H 0 Z"
         transform="translate(-915.5416,-486.41791)"
         id="path92-6" />
    </clipPath>
    <clipPath
       clipPathUnits="userSpaceOnUse"
       id="clipPath94-8">
      <path
         d="M 0,792 H 1224 V 0 H 0 Z"
         transform="translate(-911.614,-494.79591)"
         id="path94-5" />
    </clipPath>
    <clipPath
       clipPathUnits="userSpaceOnUse"
       id="clipPath96-5">
      <path
         d="M 0,792 H 1224 V 0 H 0 Z"
         transform="translate(-903.6973,-495.27731)"
         id="path96-6" />
    </clipPath>
    <clipPath
       clipPathUnits="userSpaceOnUse"
       id="clipPath98-8">
      <path
         d="M 0,792 H 1224 V 0 H 0 Z"
         transform="translate(-907.57375,-486.91501)"
         id="path98-5" />
    </clipPath>
    <clipPath
       clipPathUnits="userSpaceOnUse"
       id="clipPath100-4">
      <path
         d="M 0,792 H 1224 V 0 H 0 Z"
         transform="translate(-919.49642,-478.58541)"
         id="path100-8" />
    </clipPath>
    <clipPath
       clipPathUnits="userSpaceOnUse"
       id="clipPath102-8">
      <path
         d="M 0,792 H 1224 V 0 H 0 Z"
         transform="translate(-934.1854,-486.08301)"
         id="path102-4" />
    </clipPath>
    <clipPath
       clipPathUnits="userSpaceOnUse"
       id="clipPath104-4">
      <path
         d="M 0,792 H 1224 V 0 H 0 Z"
         transform="translate(-942.115,-486.41791)"
         id="path104-8" />
    </clipPath>
    <clipPath
       clipPathUnits="userSpaceOnUse"
       id="clipPath106-9">
      <path
         d="M 0,792 H 1224 V 0 H 0 Z"
         transform="translate(-950.08285,-486.91501)"
         id="path106-5" />
    </clipPath>
    <clipPath
       clipPathUnits="userSpaceOnUse"
       id="clipPath108-3">
      <path
         d="M 0,792 H 1224 V 0 H 0 Z"
         transform="translate(-938.1601,-478.58541)"
         id="path108-9" />
    </clipPath>
    <clipPath
       clipPathUnits="userSpaceOnUse"
       id="clipPath110-8">
      <path
         d="M 0,792 H 1224 V 0 H 0 Z"
         transform="translate(-938.3608,-494.53091)"
         id="path110-8" />
    </clipPath>
    <clipPath
       clipPathUnits="userSpaceOnUse"
       id="clipPath112-4">
      <path
         d="M 0,792 H 1224 V 0 H 0 Z"
         transform="translate(-946.23115,-494.79591)"
         id="path112-4" />
    </clipPath>
    <clipPath
       clipPathUnits="userSpaceOnUse"
       id="clipPath114-1">
      <path
         d="M 0,792 H 1224 V 0 H 0 Z"
         transform="translate(-954.1477,-495.27731)"
         id="path114-8" />
    </clipPath>
    <clipPath
       clipPathUnits="userSpaceOnUse"
       id="clipPath116-2">
      <path
         d="M 0,792 H 1224 V 0 H 0 Z"
         transform="translate(-865.585,-620.66602)"
         id="path116-6" />
    </clipPath>
    <clipPath
       clipPathUnits="userSpaceOnUse"
       id="clipPath118-6">
      <path
         d="M 0,792 H 1224 V 0 H 0 Z"
         transform="translate(-905.49512,-620.66602)"
         id="path118-6" />
    </clipPath>
    <clipPath
       clipPathUnits="userSpaceOnUse"
       id="clipPath120-7">
      <path
         d="M 0,792 H 1224 V 0 H 0 Z"
         id="path120-7" />
    </clipPath>
    <clipPath
       clipPathUnits="userSpaceOnUse"
       id="clipPath122-3">
      <path
         d="M 0,792 H 1224 V 0 H 0 Z"
         transform="translate(-960.66152,-620.66602)"
         id="path122-5" />
    </clipPath>
    <clipPath
       clipPathUnits="userSpaceOnUse"
       id="clipPath124-0">
      <path
         d="M 0,792 H 1224 V 0 H 0 Z"
         transform="translate(-1007.7831,-585.24142)"
         id="path124-5" />
    </clipPath>
    <clipPath
       clipPathUnits="userSpaceOnUse"
       id="clipPath126-0">
      <path
         d="M 0,792 H 1224 V 0 H 0 Z"
         transform="translate(-821.84725,-598.07092)"
         id="path126-1" />
    </clipPath>
    <clipPath
       clipPathUnits="userSpaceOnUse"
       id="clipPath128-5">
      <path
         d="M 0,792 H 1224 V 0 H 0 Z"
         transform="translate(-816.42205,-561.93281)"
         id="path128-9" />
    </clipPath>
    <clipPath
       clipPathUnits="userSpaceOnUse"
       id="clipPath130-0">
      <path
         d="M 0,792 H 1224 V 0 H 0 Z"
         id="path130-4" />
    </clipPath>
    <clipPath
       clipPathUnits="userSpaceOnUse"
       id="clipPath132-3">
      <path
         d="M 0,792 H 1224 V 0 H 0 Z"
         transform="translate(-963.41995,-526.50821)"
         id="path132-1" />
    </clipPath>
    <clipPath
       clipPathUnits="userSpaceOnUse"
       id="clipPath134-7">
      <path
         d="M 0,792 H 1224 V 0 H 0 Z"
         transform="translate(-981.4633,-561.93281)"
         id="path134-7" />
    </clipPath>
    <clipPath
       clipPathUnits="userSpaceOnUse"
       id="clipPath136-9">
      <path
         d="M 0,792 H 1224 V 0 H 0 Z"
         transform="translate(-883.76102,-539.33782)"
         id="path136-1" />
    </clipPath>
    <clipPath
       clipPathUnits="userSpaceOnUse"
       id="clipPath138-7">
      <path
         d="M 0,792 H 1224 V 0 H 0 Z"
         transform="translate(-1022.5518,-624.30692)"
         id="path138-0" />
    </clipPath>
  </defs>
  <g
     id="layer1"
     transform="translate(-102.10299,-74.902788)">
    <path
       id="path71"
       d="m 0,0 0.029,0.052 v 1.361 c 0,1.877 -1.75,3.264 -3.578,2.835 l -1.659,-0.39 v 0 C -5.213,3.857 -5.218,3.856 -5.224,3.854 L -5.657,3.753 -5.659,3.749 c -30.09,-7.685 -60.179,-7.847 -90.268,-0.473 -1.179,0.289 -2.316,-0.59 -2.316,-1.803 V 0.007 C -65.495,-7.989 -32.748,-7.991 0,0"
       style="fill:#22450a;fill-opacity:1;fill-rule:nonzero;stroke:none"
       transform="matrix(0.35277776,0,0,-0.35277776,158.60282,117.66121)"
       clip-path="url(#clipPath72-9)" />
    <path
       id="path73"
       d="m 0,0 c 1.964,0.398 3.928,0.822 5.893,1.272 0.071,0.017 0.143,0.03 0.214,0.047 0,-1.692 -0.164,-3.357 -0.451,-4.993 1.976,0.394 3.951,0.807 5.927,1.252 v 0.001 1.361 c 0,1.877 -1.751,3.264 -3.579,2.835 L 6.107,1.329 V 2.68 c 0,1.877 -1.75,3.264 -3.578,2.835 L 0.42,5.02 C 0.42,3.319 0.267,1.646 0,0"
       style="fill:#22450a;fill-opacity:1;fill-rule:nonzero;stroke:none"
       transform="matrix(0.35277776,0,0,-0.35277776,158.46478,119.42965)"
       clip-path="url(#clipPath74-4)" />
    <path
       id="path75"
       d="M 0,0 C 0,1.878 -1.751,3.265 -3.578,2.835 L -5.554,2.371 c 0,-21.126 -23.528,-38.51 -52.121,-38.51 -12.621,0 -24.252,3.392 -33.312,8.993 9.605,-7.702 23.399,-12.565 38.623,-12.565 28.726,0 52.364,17.309 52.364,38.344 -0.001,0 -0.002,0 -0.004,0 L 0,-1.361 Z"
       style="fill:#22450a;fill-opacity:1;fill-rule:nonzero;stroke:none"
       transform="matrix(0.35277776,0,0,-0.35277776,164.5103,121.12051)"
       clip-path="url(#clipPath76-9)" />
    <path
       id="path77"
       d="m 0,0 c -1.975,-0.445 -3.951,-0.858 -5.926,-1.253 -0.087,-0.493 -0.184,-0.983 -0.295,-1.47 -0.271,-1.183 -0.611,-2.35 -1.024,-3.495 -5.874,-16.302 -25.757,-28.44 -49.112,-28.44 -13.23,0 -25.344,3.899 -34.433,10.238 -2.654,1.852 -5.045,3.914 -7.135,6.146 3.176,-4.303 7.435,-8.116 12.493,-11.243 9.059,-5.602 20.69,-8.993 33.312,-8.993 C -23.528,-38.51 0,-21.126 0,0 Z"
       style="fill:#5fca0f;fill-opacity:1;fill-rule:nonzero;stroke:none"
       transform="matrix(0.35277776,0,0,-0.35277776,162.5509,120.28393)"
       clip-path="url(#clipPath78-6)" />
    <path
       id="path79"
       d="m 0,0 c -1.964,-0.45 -3.928,-0.874 -5.893,-1.272 -0.075,-0.464 -0.156,-0.926 -0.252,-1.384 -0.251,-1.207 -0.567,-2.397 -0.955,-3.565 -0.553,-1.667 -1.244,-3.289 -2.057,-4.864 -7.38,-14.301 -25.042,-24.477 -45.451,-24.477 -12.446,0 -23.868,3.789 -32.565,9.984 -2.303,1.641 -4.413,3.452 -6.301,5.406 -0.838,0.867 -1.63,1.763 -2.378,2.685 1.073,-1.558 2.282,-3.054 3.617,-4.481 2.09,-2.232 4.481,-4.294 7.135,-6.146 9.089,-6.339 21.203,-10.238 34.433,-10.238 23.355,0 43.238,12.138 49.112,28.44 0.413,1.145 0.753,2.312 1.023,3.495 0.112,0.487 0.209,0.977 0.296,1.47 0.287,1.637 0.45,3.301 0.45,4.993 C 0.143,0.03 0.071,0.017 0,0"
       style="fill:#ffffff;fill-opacity:1;fill-rule:nonzero;stroke:none"
       transform="matrix(0.35277776,0,0,-0.35277776,160.54364,118.98077)"
       clip-path="url(#clipPath80-8)" />
    <path
       id="path81"
       d="m 0,0 c -32.748,-7.991 -65.495,-7.989 -98.243,0.007 0,-7.8 2.913,-15.094 7.893,-21.235 0.747,-0.922 1.539,-1.817 2.377,-2.685 1.889,-1.954 3.998,-3.764 6.302,-5.405 8.697,-6.195 20.118,-9.984 32.564,-9.984 20.409,0 38.072,10.176 45.452,24.477 0.812,1.574 1.504,3.197 2.057,4.864 0.388,1.168 0.703,2.358 0.955,3.564 0.096,0.459 0.177,0.921 0.252,1.384 0.267,1.646 0.42,3.319 0.42,5.02 C 0.019,0.004 0.01,0.002 0,0"
       style="fill:#ff7077;fill-opacity:1;fill-rule:nonzero;stroke:none"
       transform="matrix(0.35277776,0,0,-0.35277776,158.60282,117.66121)"
       clip-path="url(#clipPath82-2)" />
    <path
       id="path83"
       d="m 0,0 c 0,-0.995 0.675,-1.802 1.451,-1.802 0.775,0 1.45,0.807 1.45,1.802 0,0.995 -1.025,3.098 -1.45,3.098 C 1.025,3.098 0,0.995 0,0"
       style="fill:#343532;fill-opacity:1;fill-rule:evenodd;stroke:none"
       transform="matrix(0.35277776,0,0,-0.35277776,141.26382,122.94765)"
       clip-path="url(#clipPath84-8)" />
    <path
       id="path85"
       d="m 0,0 c 0,-0.995 0.675,-1.802 1.451,-1.802 0.775,0 1.45,0.807 1.45,1.802 0,0.995 -1.025,3.098 -1.45,3.098 C 1.025,3.098 0,0.995 0,0"
       style="fill:#343532;fill-opacity:1;fill-rule:evenodd;stroke:none"
       transform="matrix(0.35277776,0,0,-0.35277776,141.26382,128.6816)"
       clip-path="url(#clipPath86-9)" />
    <path
       id="path87"
       d="m 0,0 c -0.093,-0.991 0.505,-1.857 1.276,-1.93 0.772,-0.072 1.52,0.669 1.612,1.66 C 2.981,0.721 2.156,2.91 1.733,2.95 1.309,2.989 0.093,0.991 0,0"
       style="fill:#343532;fill-opacity:1;fill-rule:evenodd;stroke:none"
       transform="matrix(0.35277776,0,0,-0.35277776,139.86754,125.75816)"
       clip-path="url(#clipPath88-2)" />
    <path
       id="path89"
       d="M 0,0 C -0.136,-0.986 0.423,-1.878 1.19,-1.984 1.958,-2.09 2.738,-1.383 2.874,-0.397 3.01,0.589 2.283,2.812 1.861,2.87 1.439,2.929 0.136,0.986 0,0"
       style="fill:#343532;fill-opacity:1;fill-rule:evenodd;stroke:none"
       transform="matrix(0.35277776,0,0,-0.35277776,138.46104,122.77793)"
       clip-path="url(#clipPath90-6)" />
    <path
       id="path91"
       d="M 0,0 C -0.136,-0.986 0.422,-1.878 1.19,-1.984 1.958,-2.09 2.737,-1.383 2.874,-0.397 3.01,0.589 2.282,2.812 1.861,2.87 1.439,2.929 0.136,0.986 0,0"
       style="fill:#343532;fill-opacity:1;fill-rule:evenodd;stroke:none"
       transform="matrix(0.35277776,0,0,-0.35277776,137.07018,125.64002)"
       clip-path="url(#clipPath92-0)" />
    <path
       id="path93"
       d="M 0,0 C -0.137,-0.986 0.421,-1.878 1.188,-1.985 1.956,-2.092 2.736,-1.386 2.873,-0.4 3.01,0.586 2.285,2.81 1.863,2.869 1.442,2.927 0.137,0.986 0,0"
       style="fill:#343532;fill-opacity:1;fill-rule:evenodd;stroke:none"
       transform="matrix(0.35277776,0,0,-0.35277776,135.68461,122.68444)"
       clip-path="url(#clipPath94-8)" />
    <path
       id="path95"
       d="m 0,0 c -0.274,-0.957 0.154,-1.919 0.899,-2.132 0.745,-0.213 1.616,0.377 1.89,1.334 C 3.063,0.159 2.656,2.463 2.247,2.58 1.837,2.697 0.274,0.957 0,0"
       style="fill:#343532;fill-opacity:1;fill-rule:evenodd;stroke:none"
       transform="matrix(0.35277776,0,0,-0.35277776,132.89177,122.51462)"
       clip-path="url(#clipPath96-5)" />
    <path
       id="path97"
       d="m 0,0 c -0.274,-0.957 0.154,-1.919 0.899,-2.132 0.745,-0.213 1.616,0.377 1.89,1.334 C 3.063,0.159 2.656,2.463 2.247,2.58 1.837,2.697 0.274,0.957 0,0"
       style="fill:#343532;fill-opacity:1;fill-rule:evenodd;stroke:none"
       transform="matrix(0.35277776,0,0,-0.35277776,134.2593,125.46465)"
       clip-path="url(#clipPath98-8)" />
    <path
       id="path99"
       d="m 0,0 c -0.274,-0.957 0.154,-1.919 0.899,-2.132 0.745,-0.213 1.616,0.377 1.89,1.334 C 3.063,0.159 2.656,2.463 2.247,2.58 1.837,2.697 0.274,0.957 0,0"
       style="fill:#343532;fill-opacity:1;fill-rule:evenodd;stroke:none"
       transform="matrix(0.35277776,0,0,-0.35277776,138.46535,128.40315)"
       clip-path="url(#clipPath100-4)" />
    <path
       id="path101"
       d="m 0,0 c 0.093,-0.991 -0.505,-1.857 -1.276,-1.93 -0.772,-0.072 -1.52,0.669 -1.612,1.66 -0.093,0.991 0.732,3.18 1.155,3.22 C -1.309,2.989 -0.093,0.991 0,0"
       style="fill:#343532;fill-opacity:1;fill-rule:evenodd;stroke:none"
       transform="matrix(0.35277776,0,0,-0.35277776,143.6473,125.75816)"
       clip-path="url(#clipPath102-8)" />
    <path
       id="path103"
       d="M 0,0 C 0.136,-0.986 -0.422,-1.878 -1.19,-1.984 -1.958,-2.09 -2.738,-1.383 -2.874,-0.397 -3.01,0.589 -2.282,2.812 -1.861,2.87 -1.439,2.929 -0.136,0.986 0,0"
       style="fill:#343532;fill-opacity:1;fill-rule:evenodd;stroke:none"
       transform="matrix(0.35277776,0,0,-0.35277776,146.44468,125.64002)"
       clip-path="url(#clipPath104-4)" />
    <path
       id="path105"
       d="m 0,0 c 0.274,-0.957 -0.154,-1.919 -0.899,-2.132 -0.745,-0.213 -1.616,0.377 -1.89,1.334 -0.274,0.957 0.133,3.261 0.542,3.378 C -1.837,2.697 -0.274,0.957 0,0"
       style="fill:#343532;fill-opacity:1;fill-rule:evenodd;stroke:none"
       transform="matrix(0.35277776,0,0,-0.35277776,149.25556,125.46465)"
       clip-path="url(#clipPath106-9)" />
    <path
       id="path107"
       d="m 0,0 c 0.274,-0.957 -0.154,-1.919 -0.899,-2.132 -0.745,-0.213 -1.616,0.377 -1.89,1.334 -0.274,0.957 0.133,3.261 0.542,3.378 C -1.837,2.697 -0.274,0.957 0,0"
       style="fill:#343532;fill-opacity:1;fill-rule:evenodd;stroke:none"
       transform="matrix(0.35277776,0,0,-0.35277776,145.04948,128.40315)"
       clip-path="url(#clipPath108-3)" />
    <path
       id="path109"
       d="M 0,0 C 0.136,-0.986 -0.422,-1.878 -1.19,-1.984 -1.958,-2.09 -2.737,-1.383 -2.874,-0.397 -3.01,0.589 -2.282,2.812 -1.861,2.87 -1.439,2.929 -0.136,0.986 0,0"
       style="fill:#343532;fill-opacity:1;fill-rule:evenodd;stroke:none"
       transform="matrix(0.35277776,0,0,-0.35277776,145.12028,122.77793)"
       clip-path="url(#clipPath110-8)" />
    <path
       id="path111"
       d="M 0,0 C 0.137,-0.986 -0.421,-1.878 -1.188,-1.985 -1.956,-2.092 -2.736,-1.386 -2.873,-0.4 -3.01,0.586 -2.285,2.81 -1.863,2.869 -1.442,2.927 -0.137,0.986 0,0"
       style="fill:#343532;fill-opacity:1;fill-rule:evenodd;stroke:none"
       transform="matrix(0.35277776,0,0,-0.35277776,147.89677,122.68444)"
       clip-path="url(#clipPath112-4)" />
    <path
       id="path113"
       d="m 0,0 c 0.274,-0.957 -0.154,-1.919 -0.899,-2.132 -0.745,-0.213 -1.616,0.377 -1.89,1.334 -0.274,0.957 0.133,3.261 0.542,3.378 C -1.837,2.697 -0.274,0.957 0,0"
       style="fill:#343532;fill-opacity:1;fill-rule:evenodd;stroke:none"
       transform="matrix(0.35277776,0,0,-0.35277776,150.68955,122.51462)"
       clip-path="url(#clipPath114-1)" />
    <path
       id="path115"
       d="m 0,0 h 5.106 v -7.723 c 0.723,1.617 1.776,3.064 3.16,4.34 1.382,1.277 3.041,2.276 4.978,3 1.936,0.723 4.032,1.085 6.287,1.085 3.447,0 6.532,-0.777 9.256,-2.33 2.722,-1.553 4.86,-3.744 6.414,-6.574 1.553,-2.83 2.33,-6.032 2.33,-9.606 v -23.68 h -5.106 v 23.808 c 0,2.722 -0.586,5.116 -1.756,7.18 -1.17,2.064 -2.787,3.68 -4.851,4.851 -2.064,1.17 -4.415,1.756 -7.053,1.756 -2.638,0 -4.989,-0.586 -7.052,-1.756 C 9.648,-6.82 8.031,-8.436 6.862,-10.5 5.691,-12.564 5.106,-14.958 5.106,-17.68 V -41.488 H 0 Z"
       style="fill:#22450a;fill-opacity:1;fill-rule:nonzero;stroke:none"
       transform="matrix(0.35277776,0,0,-0.35277776,119.4466,78.280272)"
       clip-path="url(#clipPath116-2)" />
    <path
       id="path117"
       d="M 0,0 H 5.298 L 21.255,-35.425 37.148,0 h 5.298 L 23.744,-41.488 h -5.042 z"
       style="fill:#22450a;fill-opacity:1;fill-rule:nonzero;stroke:none"
       transform="matrix(0.35277776,0,0,-0.35277776,133.526,78.280272)"
       clip-path="url(#clipPath118-6)" />
    <path
       id="path119"
       d="m 950.727,620.666 h 5.106 v -41.488 h -5.106 z m 0,9.574 h 5.106 v -4.787 h -5.106 z"
       style="fill:#22450a;fill-opacity:1;fill-rule:nonzero;stroke:none"
       transform="matrix(0.35277776,0,0,-0.35277776,-185.91254,297.23744)"
       clip-path="url(#clipPath120-7)" />
    <path
       id="path121"
       d="m 0,0 h 5.106 v -7.723 c 1.191,2.339 3,4.308 5.426,5.904 2.425,1.596 5.234,2.436 8.425,2.521 V -4.34 c -2.681,0 -5.074,-0.597 -7.181,-1.787 C 9.67,-7.319 8.031,-8.968 6.862,-11.074 5.691,-13.18 5.106,-15.617 5.106,-18.382 V -41.488 H 0 Z"
       style="fill:#22450a;fill-opacity:1;fill-rule:nonzero;stroke:none"
       transform="matrix(0.35277776,0,0,-0.35277776,152.98748,78.280272)"
       clip-path="url(#clipPath122-3)" />
    <path
       id="path123"
       d="m 0,0 c 2.51,1.404 4.457,3.383 5.84,5.936 1.383,2.553 2.075,5.467 2.075,8.744 0,3.277 -0.692,6.192 -2.075,8.745 -1.383,2.553 -3.33,4.532 -5.84,5.936 -2.511,1.404 -5.362,2.106 -8.553,2.106 -3.191,0 -6.043,-0.702 -8.553,-2.106 -2.511,-1.404 -4.458,-3.383 -5.84,-5.936 -1.384,-2.553 -2.075,-5.468 -2.075,-8.745 0,-3.277 0.691,-6.191 2.075,-8.744 1.382,-2.553 3.329,-4.532 5.84,-5.936 2.51,-1.404 5.362,-2.106 8.553,-2.106 3.191,0 6.042,0.702 8.553,2.106 m -19.819,-4.053 c -3.298,1.808 -5.872,4.34 -7.723,7.596 -1.851,3.255 -2.776,6.967 -2.776,11.137 0,4.17 0.925,7.883 2.776,11.138 1.851,3.256 4.425,5.787 7.723,7.596 3.297,1.808 7.053,2.713 11.266,2.713 4.213,0 7.968,-0.905 11.266,-2.713 3.297,-1.809 5.872,-4.34 7.723,-7.596 1.851,-3.255 2.776,-6.968 2.776,-11.138 0,-4.17 -0.925,-7.882 -2.776,-11.137 C 8.585,0.287 6.01,-2.245 2.713,-4.053 -0.585,-5.862 -4.34,-6.766 -8.553,-6.766 c -4.213,0 -7.969,0.904 -11.266,2.713"
       style="fill:#22450a;fill-opacity:1;fill-rule:nonzero;stroke:none"
       transform="matrix(0.35277776,0,0,-0.35277776,169.61091,90.777282)"
       clip-path="url(#clipPath124-0)" />
    <path
       id="path125"
       d="M 0,0 C -0.012,2.049 0.063,2.656 0.192,4.34 H 0.195 0.192 c 0.297,2.85 1.169,5.362 2.617,7.532 1.446,2.17 3.34,3.84 5.68,5.011 2.34,1.169 4.957,1.755 7.851,1.755 2.723,0 5.191,-0.533 7.404,-1.596 2.212,-1.064 4.053,-2.671 5.521,-4.819 1.468,-2.149 2.372,-4.755 2.713,-7.819 L 16.085,4.372 V 0 h 21.446 c 0.212,4.723 -0.574,8.85 -2.362,12.383 -1.787,3.531 -4.319,6.233 -7.595,8.106 -3.277,1.872 -7.043,2.808 -11.298,2.808 -4.17,0 -7.905,-0.904 -11.202,-2.713 C 1.776,18.775 -0.798,16.244 -2.649,12.989 -4.5,9.734 -5.425,6 -5.425,1.787 c 0,-4.171 0.914,-7.873 2.744,-11.106 1.829,-3.234 4.382,-5.755 7.66,-7.564 3.276,-1.809 7.021,-2.712 11.233,-2.712 5.404,0 9.936,1.446 13.596,4.34 3.659,2.893 6.064,6.808 7.212,11.744 H 31.595 C 30.658,-7 28.819,-9.777 26.074,-11.84 c -2.745,-2.065 -6.032,-3.096 -9.862,-3.096 -2.936,0 -5.607,0.627 -8.01,1.883 -2.405,1.255 -4.33,3.01 -5.776,5.266 C 0.978,-5.532 0.17,-2.936 0,0 h 0.001 z"
       style="fill:#22450a;fill-opacity:1;fill-rule:nonzero;stroke:none"
       transform="matrix(0.35277776,0,0,-0.35277776,104.01689,86.251322)"
       clip-path="url(#clipPath126-0)" />
    <path
       id="path127"
       d="m 0,0 h 5.106 v -5.936 c 1.063,2.084 2.649,3.712 4.756,4.883 2.106,1.17 4.456,1.755 7.052,1.755 2.937,0 5.543,-0.702 7.819,-2.106 2.276,-1.404 4.011,-3.362 5.202,-5.872 1.191,2.51 2.925,4.468 5.202,5.872 2.276,1.404 4.883,2.106 7.819,2.106 2.936,0 5.553,-0.66 7.851,-1.979 2.298,-1.319 4.085,-3.159 5.362,-5.521 1.276,-2.361 1.914,-5.053 1.914,-8.074 v -26.616 h -5.106 v 26.616 c 0,2.127 -0.458,4.021 -1.372,5.681 -0.915,1.659 -2.192,2.957 -3.83,3.893 -1.638,0.936 -3.5,1.405 -5.585,1.405 -2.042,0 -3.872,-0.469 -5.489,-1.405 -1.618,-0.936 -2.872,-2.234 -3.766,-3.893 -0.893,-1.66 -1.34,-3.554 -1.34,-5.681 v -26.616 h -5.106 v 26.361 c 0,2.212 -0.447,4.17 -1.341,5.872 -0.893,1.701 -2.138,3.021 -3.734,3.957 -1.595,0.936 -3.414,1.405 -5.457,1.405 -2.128,0 -4.011,-0.469 -5.649,-1.405 C 8.67,-6.234 7.393,-7.554 6.479,-9.255 5.563,-10.957 5.106,-12.915 5.106,-15.127 V -41.488 H 0 Z"
       style="fill:#22450a;fill-opacity:1;fill-rule:nonzero;stroke:none"
       transform="matrix(0.35277776,0,0,-0.35277776,102.103,99.000042)"
       clip-path="url(#clipPath128-5)" />
    <path
       id="path129"
       d="m 924.165,571.507 h 5.106 v -51.062 h -5.106 z"
       style="fill:#22450a;fill-opacity:1;fill-rule:nonzero;stroke:none"
       transform="matrix(0.35277776,0,0,-0.35277776,-185.91254,297.23744)"
       clip-path="url(#clipPath130-0)" />
    <path
       id="path131"
       d="m 0,0 c 2.51,1.404 4.457,3.383 5.84,5.936 1.383,2.553 2.075,5.467 2.075,8.744 0,3.277 -0.692,6.192 -2.075,8.745 -1.383,2.553 -3.33,4.532 -5.84,5.936 -2.511,1.404 -5.362,2.106 -8.553,2.106 -3.191,0 -6.043,-0.702 -8.553,-2.106 -2.511,-1.404 -4.458,-3.383 -5.84,-5.936 -1.384,-2.553 -2.075,-5.468 -2.075,-8.745 0,-3.277 0.691,-6.191 2.075,-8.744 1.382,-2.553 3.329,-4.532 5.84,-5.936 2.51,-1.404 5.362,-2.106 8.553,-2.106 3.191,0 6.042,0.702 8.553,2.106 m -19.819,-4.053 c -3.298,1.808 -5.872,4.34 -7.723,7.596 -1.851,3.255 -2.776,6.967 -2.776,11.137 0,4.17 0.925,7.883 2.776,11.138 1.851,3.256 4.425,5.787 7.723,7.596 3.297,1.808 7.053,2.713 11.266,2.713 4.213,0 7.968,-0.905 11.266,-2.713 3.297,-1.809 5.872,-4.34 7.723,-7.596 1.851,-3.255 2.776,-6.968 2.776,-11.138 0,-4.17 -0.925,-7.882 -2.776,-11.137 C 8.585,0.287 6.01,-2.245 2.713,-4.053 -0.585,-5.862 -4.34,-6.766 -8.553,-6.766 c -4.213,0 -7.969,0.904 -11.266,2.713"
       style="fill:#22450a;fill-opacity:1;fill-rule:nonzero;stroke:none"
       transform="matrix(0.35277776,0,0,-0.35277776,153.96059,111.49705)"
       clip-path="url(#clipPath132-3)" />
    <path
       id="path133"
       d="m 0,0 h 5.106 v -7.723 c 0.723,1.617 1.776,3.064 3.16,4.34 1.382,1.277 3.041,2.276 4.978,3 1.936,0.723 4.032,1.085 6.287,1.085 3.447,0 6.532,-0.777 9.256,-2.329 2.722,-1.554 4.86,-3.745 6.414,-6.575 1.553,-2.83 2.33,-6.032 2.33,-9.606 v -23.68 h -5.106 v 23.808 c 0,2.722 -0.586,5.116 -1.756,7.18 -1.17,2.064 -2.787,3.681 -4.851,4.851 -2.064,1.17 -4.415,1.756 -7.053,1.756 -2.638,0 -4.989,-0.586 -7.053,-1.756 C 9.648,-6.819 8.031,-8.436 6.862,-10.5 5.691,-12.564 5.106,-14.958 5.106,-17.68 V -41.488 H 0 Z"
       style="fill:#22450a;fill-opacity:1;fill-rule:nonzero;stroke:none"
       transform="matrix(0.35277776,0,0,-0.35277776,160.32589,99.000042)"
       clip-path="url(#clipPath134-7)" />
    <path
       id="path135"
       d="M 0,0 C -0.012,2.049 0.063,2.656 0.192,4.34 H 0.195 0.192 c 0.297,2.85 1.17,5.362 2.617,7.532 1.446,2.17 3.34,3.84 5.68,5.011 2.34,1.169 4.957,1.755 7.851,1.755 2.723,0 5.191,-0.533 7.404,-1.596 2.212,-1.064 4.053,-2.671 5.521,-4.819 1.468,-2.149 2.372,-4.755 2.713,-7.819 L 16.085,4.372 V 0 h 21.446 c 0.212,4.723 -0.574,8.85 -2.362,12.383 -1.787,3.531 -4.319,6.233 -7.595,8.106 -3.277,1.872 -7.043,2.808 -11.298,2.808 -4.17,0 -7.905,-0.904 -11.202,-2.713 C 1.776,18.775 -0.798,16.244 -2.649,12.989 -4.5,9.734 -5.425,6 -5.425,1.787 c 0,-4.171 0.914,-7.873 2.744,-11.106 1.829,-3.234 4.383,-5.755 7.66,-7.564 3.276,-1.809 7.021,-2.712 11.233,-2.712 5.404,0 9.936,1.446 13.596,4.34 3.659,2.893 6.064,6.808 7.212,11.744 H 31.595 C 30.658,-7 28.819,-9.777 26.074,-11.84 c -2.745,-2.065 -6.032,-3.096 -9.862,-3.096 -2.936,0 -5.607,0.627 -8.01,1.883 -2.405,1.255 -4.33,3.01 -5.776,5.266 C 0.978,-5.532 0.17,-2.936 0,0 h 0.001 z"
       style="fill:#22450a;fill-opacity:1;fill-rule:nonzero;stroke:none"
       transform="matrix(0.35277776,0,0,-0.35277776,125.8587,106.97105)"
       clip-path="url(#clipPath136-9)" />
    <path
       id="path137"
       d="m 0,0 v 5.933 h 1.456 l 1.5,-4.739 1.448,4.739 H 5.831 V 0 H 4.929 V 4.98 L 3.4,0 H 2.504 L 0.91,5.052 V 0 Z m -3.589,0 v 5.052 h -1.922 v 0.881 h 4.849 V 5.052 H -2.599 V 0 Z"
       style="fill:#22450a;fill-opacity:1;fill-rule:nonzero;stroke:none"
       transform="matrix(0.35277776,0,0,-0.35277776,174.82101,76.995842)"
       clip-path="url(#clipPath138-7)" />
  </g>
</svg>
