<?xml version="1.0" encoding="UTF-8" standalone="no"?>
<!-- Created with Inkscape (http://www.inkscape.org/) -->

<svg
   width="147.44113mm"
   height="38.765793mm"
   viewBox="0 0 147.44113 38.765793"
   version="1.1"
   id="svg1"
   xmlns="http://www.w3.org/2000/svg"
   xmlns:svg="http://www.w3.org/2000/svg">
  <defs
     id="defs1">
    <clipPath
       clipPathUnits="userSpaceOnUse"
       id="clipPath4">
      <path
         d="M 0,792 H 1224 V 0 H 0 Z"
         transform="translate(-530.66281,-568.06261)"
         id="path4" />
    </clipPath>
    <clipPath
       clipPathUnits="userSpaceOnUse"
       id="clipPath6">
      <path
         d="M 0,792 H 1224 V 0 H 0 Z"
         transform="translate(-530.28661,-563.24191)"
         id="path6" />
    </clipPath>
    <clipPath
       clipPathUnits="userSpaceOnUse"
       id="clipPath8">
      <path
         d="M 0,792 H 1224 V 0 H 0 Z"
         transform="translate(-546.76642,-558.63271)"
         id="path8" />
    </clipPath>
    <clipPath
       clipPathUnits="userSpaceOnUse"
       id="clipPath10">
      <path
         d="M 0,792 H 1224 V 0 H 0 Z"
         transform="translate(-541.42511,-560.91311)"
         id="path10" />
    </clipPath>
    <clipPath
       clipPathUnits="userSpaceOnUse"
       id="clipPath12">
      <path
         d="M 0,792 H 1224 V 0 H 0 Z"
         transform="translate(-535.95341,-564.46541)"
         id="path12" />
    </clipPath>
    <clipPath
       clipPathUnits="userSpaceOnUse"
       id="clipPath14">
      <path
         d="M 0,792 H 1224 V 0 H 0 Z"
         transform="translate(-530.66281,-568.06261)"
         id="path14" />
    </clipPath>
    <clipPath
       clipPathUnits="userSpaceOnUse"
       id="clipPath16">
      <path
         d="M 0,792 H 1224 V 0 H 0 Z"
         transform="translate(-483.39751,-553.65202)"
         id="path16" />
    </clipPath>
    <clipPath
       clipPathUnits="userSpaceOnUse"
       id="clipPath18">
      <path
         d="M 0,792 H 1224 V 0 H 0 Z"
         transform="translate(-483.39751,-538.02151)"
         id="path18" />
    </clipPath>
    <clipPath
       clipPathUnits="userSpaceOnUse"
       id="clipPath20">
      <path
         d="M 0,792 H 1224 V 0 H 0 Z"
         transform="translate(-479.59131,-545.99062)"
         id="path20" />
    </clipPath>
    <clipPath
       clipPathUnits="userSpaceOnUse"
       id="clipPath22">
      <path
         d="M 0,792 H 1224 V 0 H 0 Z"
         transform="translate(-475.75731,-554.11462)"
         id="path22" />
    </clipPath>
    <clipPath
       clipPathUnits="userSpaceOnUse"
       id="clipPath24">
      <path
         d="M 0,792 H 1224 V 0 H 0 Z"
         transform="translate(-471.96591,-546.31271)"
         id="path24" />
    </clipPath>
    <clipPath
       clipPathUnits="userSpaceOnUse"
       id="clipPath26">
      <path
         d="M 0,792 H 1224 V 0 H 0 Z"
         transform="translate(-468.18891,-554.36941)"
         id="path26" />
    </clipPath>
    <clipPath
       clipPathUnits="userSpaceOnUse"
       id="clipPath28">
      <path
         d="M 0,792 H 1224 V 0 H 0 Z"
         transform="translate(-460.57581,-554.83231)"
         id="path28" />
    </clipPath>
    <clipPath
       clipPathUnits="userSpaceOnUse"
       id="clipPath30">
      <path
         d="M 0,792 H 1224 V 0 H 0 Z"
         transform="translate(-464.30361,-546.79072)"
         id="path30" />
    </clipPath>
    <clipPath
       clipPathUnits="userSpaceOnUse"
       id="clipPath32">
      <path
         d="M 0,792 H 1224 V 0 H 0 Z"
         transform="translate(-475.76901,-538.78051)"
         id="path32" />
    </clipPath>
    <clipPath
       clipPathUnits="userSpaceOnUse"
       id="clipPath34">
      <path
         d="M 0,792 H 1224 V 0 H 0 Z"
         transform="translate(-489.89481,-545.99062)"
         id="path34" />
    </clipPath>
    <clipPath
       clipPathUnits="userSpaceOnUse"
       id="clipPath36">
      <path
         d="M 0,792 H 1224 V 0 H 0 Z"
         transform="translate(-497.52031,-546.31271)"
         id="path36" />
    </clipPath>
    <clipPath
       clipPathUnits="userSpaceOnUse"
       id="clipPath38">
      <path
         d="M 0,792 H 1224 V 0 H 0 Z"
         transform="translate(-505.18261,-546.79072)"
         id="path38" />
    </clipPath>
    <clipPath
       clipPathUnits="userSpaceOnUse"
       id="clipPath40">
      <path
         d="M 0,792 H 1224 V 0 H 0 Z"
         transform="translate(-493.71711,-538.78051)"
         id="path40" />
    </clipPath>
    <clipPath
       clipPathUnits="userSpaceOnUse"
       id="clipPath42">
      <path
         d="M 0,792 H 1224 V 0 H 0 Z"
         transform="translate(-493.91021,-554.11462)"
         id="path42" />
    </clipPath>
    <clipPath
       clipPathUnits="userSpaceOnUse"
       id="clipPath44">
      <path
         d="M 0,792 H 1224 V 0 H 0 Z"
         transform="translate(-501.47861,-554.36941)"
         id="path44" />
    </clipPath>
    <clipPath
       clipPathUnits="userSpaceOnUse"
       id="clipPath46">
      <path
         d="M 0,792 H 1224 V 0 H 0 Z"
         transform="translate(-509.09171,-554.83231)"
         id="path46" />
    </clipPath>
    <clipPath
       clipPathUnits="userSpaceOnUse"
       id="clipPath48">
      <path
         d="M 0,792 H 1224 V 0 H 0 Z"
         transform="translate(-210.44721,-620.75782)"
         id="path48" />
    </clipPath>
    <clipPath
       clipPathUnits="userSpaceOnUse"
       id="clipPath50">
      <path
         d="M 0,792 H 1224 V 0 H 0 Z"
         transform="translate(-247.97811,-620.75782)"
         id="path50" />
    </clipPath>
    <clipPath
       clipPathUnits="userSpaceOnUse"
       id="clipPath52">
      <path
         d="M 0,792 H 1224 V 0 H 0 Z"
         id="path52" />
    </clipPath>
    <clipPath
       clipPathUnits="userSpaceOnUse"
       id="clipPath54">
      <path
         d="M 0,792 H 1224 V 0 H 0 Z"
         transform="translate(-306.54241,-620.75782)"
         id="path54" />
    </clipPath>
    <clipPath
       clipPathUnits="userSpaceOnUse"
       id="clipPath56">
      <path
         d="M 0,792 H 1224 V 0 H 0 Z"
         transform="translate(-354.08801,-585.33331)"
         id="path56" />
    </clipPath>
    <clipPath
       clipPathUnits="userSpaceOnUse"
       id="clipPath58">
      <path
         d="M 0,792 H 1224 V 0 H 0 Z"
         transform="translate(-169.0228,-598.16272)"
         id="path58" />
    </clipPath>
    <clipPath
       clipPathUnits="userSpaceOnUse"
       id="clipPath60">
      <path
         d="M 0,792 H 1224 V 0 H 0 Z"
         transform="translate(-370.81031,-620.75782)"
         id="path60" />
    </clipPath>
    <clipPath
       clipPathUnits="userSpaceOnUse"
       id="clipPath62">
      <path
         d="M 0,792 H 1224 V 0 H 0 Z"
         id="path62" />
    </clipPath>
    <clipPath
       clipPathUnits="userSpaceOnUse"
       id="clipPath64">
      <path
         d="M 0,792 H 1224 V 0 H 0 Z"
         transform="translate(-517.54942,-585.33331)"
         id="path64" />
    </clipPath>
    <clipPath
       clipPathUnits="userSpaceOnUse"
       id="clipPath66">
      <path
         d="M 0,792 H 1224 V 0 H 0 Z"
         transform="translate(-534.59111,-620.75782)"
         id="path66" />
    </clipPath>
    <clipPath
       clipPathUnits="userSpaceOnUse"
       id="clipPath68">
      <path
         d="M 0,792 H 1224 V 0 H 0 Z"
         transform="translate(-436.87131,-598.16281)"
         id="path68" />
    </clipPath>
    <clipPath
       clipPathUnits="userSpaceOnUse"
       id="clipPath70">
      <path
         d="M 0,792 H 1224 V 0 H 0 Z"
         transform="translate(-575.71012,-624.39881)"
         id="path70" />
    </clipPath>
  </defs>
  <g
     id="layer1"
     transform="translate(-70.644789,-80.510569)">
    <path
       id="path3"
       d="m 0,0 0.028,0.05 v 1.309 c 0,1.805 -1.683,3.139 -3.441,2.726 L -5.008,3.71 v 0 C -5.013,3.709 -5.018,3.708 -5.023,3.707 L -5.44,3.609 -5.442,3.605 C -34.378,-3.785 -63.314,-3.941 -92.249,3.15 -93.382,3.428 -94.476,2.583 -94.476,1.417 V 0.006 C -62.984,-7.683 -31.492,-7.684 0,0"
       style="fill:#22450a;fill-opacity:1;fill-rule:nonzero;stroke:none"
       transform="matrix(0.35277776,0,0,-0.35277776,200.13717,102.47782)"
       clip-path="url(#clipPath4)" />
    <path
       id="path5"
       d="m 0,0 c 1.889,0.383 3.778,0.79 5.667,1.224 0.069,0.015 0.137,0.028 0.206,0.044 0,-1.627 -0.157,-3.228 -0.433,-4.801 1.899,0.379 3.799,0.776 5.699,1.204 v 0.001 1.308 c 0,1.806 -1.684,3.14 -3.441,2.727 L 5.873,1.278 v 1.299 c 0,1.806 -1.683,3.139 -3.441,2.726 L 0.404,4.827 C 0.404,3.192 0.257,1.583 0,0"
       style="fill:#22450a;fill-opacity:1;fill-rule:nonzero;stroke:none"
       transform="matrix(0.35277776,0,0,-0.35277776,200.00445,104.17845)"
       clip-path="url(#clipPath6)" />
    <path
       id="path7"
       d="m 0,0 c 0,1.805 -1.683,3.139 -3.441,2.726 l -1.9,-0.446 c 0,-20.316 -22.626,-37.033 -50.122,-37.033 -12.138,0 -23.322,3.261 -32.035,8.648 9.237,-7.406 22.501,-12.083 37.142,-12.083 27.624,0 50.356,16.645 50.356,36.874 -0.001,0 -0.002,-10e-4 -0.003,-10e-4 L 0,-1.309 Z"
       style="fill:#22450a;fill-opacity:1;fill-rule:nonzero;stroke:none"
       transform="matrix(0.35277776,0,0,-0.35277776,205.81816,105.80448)"
       clip-path="url(#clipPath8)" />
    <path
       id="path9"
       d="m 0,0 c -1.9,-0.428 -3.799,-0.825 -5.699,-1.205 -0.083,-0.474 -0.177,-0.945 -0.284,-1.413 -0.26,-1.139 -0.587,-2.26 -0.984,-3.361 -5.649,-15.677 -24.77,-27.35 -47.229,-27.35 -12.723,0 -24.372,3.749 -33.113,9.846 -2.552,1.78 -4.851,3.763 -6.861,5.91 3.055,-4.138 7.15,-7.805 12.014,-10.812 8.712,-5.387 19.896,-8.648 32.034,-8.648 C -22.626,-37.033 0,-20.316 0,0 Z"
       style="fill:#5fca0f;fill-opacity:1;fill-rule:nonzero;stroke:none"
       transform="matrix(0.35277776,0,0,-0.35277776,203.93387,105)"
       clip-path="url(#clipPath10)" />
    <path
       id="path11"
       d="m 0,0 c -1.889,-0.433 -3.778,-0.841 -5.667,-1.224 -0.072,-0.445 -0.15,-0.889 -0.242,-1.33 -0.242,-1.161 -0.546,-2.305 -0.918,-3.428 -0.532,-1.603 -1.197,-3.164 -1.979,-4.678 -7.097,-13.752 -24.082,-23.538 -43.709,-23.538 -11.968,0 -22.952,3.643 -31.315,9.601 -2.216,1.578 -4.244,3.319 -6.06,5.199 -0.806,0.833 -1.568,1.695 -2.286,2.581 1.031,-1.498 2.194,-2.937 3.478,-4.308 2.01,-2.147 4.308,-4.13 6.861,-5.911 8.741,-6.096 20.39,-9.845 33.113,-9.845 22.459,0 41.58,11.673 47.229,27.349 0.397,1.102 0.723,2.223 0.984,3.361 0.107,0.469 0.201,0.94 0.284,1.414 0.276,1.574 0.433,3.175 0.433,4.802 C 0.137,0.029 0.069,0.016 0,0"
       style="fill:#ffffff;fill-opacity:1;fill-rule:nonzero;stroke:none"
       transform="matrix(0.35277776,0,0,-0.35277776,202.00357,103.74683)"
       clip-path="url(#clipPath12)" />
    <path
       id="path13"
       d="m 0,0 c -31.492,-7.684 -62.984,-7.683 -94.476,0.006 0,-7.5 2.801,-14.514 7.59,-20.42 0.719,-0.886 1.481,-1.748 2.287,-2.582 1.816,-1.879 3.844,-3.62 6.059,-5.198 8.364,-5.958 19.347,-9.601 31.316,-9.601 19.626,0 36.612,9.786 43.709,23.538 0.781,1.514 1.446,3.075 1.978,4.678 0.373,1.123 0.677,2.267 0.919,3.428 0.091,0.441 0.169,0.885 0.242,1.33 0.257,1.583 0.404,3.192 0.404,4.827 C 0.019,0.004 0.009,0.002 0,0"
       style="fill:#ff7077;fill-opacity:1;fill-rule:nonzero;stroke:none"
       transform="matrix(0.35277776,0,0,-0.35277776,200.13717,102.47782)"
       clip-path="url(#clipPath14)" />
    <path
       id="path15"
       d="M 0,0 C 0,-0.957 0.65,-1.733 1.395,-1.733 2.14,-1.733 2.79,-0.957 2.79,0 2.79,0.957 1.804,2.979 1.395,2.979 0.986,2.979 0,0.957 0,0"
       style="fill:#343532;fill-opacity:1;fill-rule:evenodd;stroke:none"
       transform="matrix(0.35277776,0,0,-0.35277776,183.46302,107.56156)"
       clip-path="url(#clipPath16)" />
    <path
       id="path17"
       d="M 0,0 C 0,-0.957 0.65,-1.733 1.395,-1.733 2.14,-1.733 2.79,-0.957 2.79,0 2.79,0.957 1.804,2.979 1.395,2.979 0.986,2.979 0,0.957 0,0"
       style="fill:#343532;fill-opacity:1;fill-rule:evenodd;stroke:none"
       transform="matrix(0.35277776,0,0,-0.35277776,183.46302,113.07565)"
       clip-path="url(#clipPath18)" />
    <path
       id="path19"
       d="M 0,0 C -0.089,-0.953 0.485,-1.786 1.227,-1.856 1.97,-1.925 2.689,-1.213 2.778,-0.26 2.867,0.693 2.074,2.798 1.666,2.836 1.259,2.875 0.089,0.953 0,0"
       style="fill:#343532;fill-opacity:1;fill-rule:evenodd;stroke:none"
       transform="matrix(0.35277776,0,0,-0.35277776,182.12028,110.26433)"
       clip-path="url(#clipPath20)" />
    <path
       id="path21"
       d="M 0,0 C -0.131,-0.948 0.406,-1.806 1.145,-1.908 1.883,-2.01 2.633,-1.33 2.764,-0.382 2.895,0.566 2.195,2.704 1.789,2.76 1.384,2.816 0.131,0.948 0,0"
       style="fill:#343532;fill-opacity:1;fill-rule:evenodd;stroke:none"
       transform="matrix(0.35277776,0,0,-0.35277776,180.76773,107.39836)"
       clip-path="url(#clipPath22)" />
    <path
       id="path23"
       d="M 0,0 C -0.131,-0.948 0.406,-1.806 1.145,-1.908 1.883,-2.01 2.633,-1.33 2.764,-0.382 2.895,0.566 2.195,2.704 1.789,2.76 1.384,2.816 0.131,0.948 0,0"
       style="fill:#343532;fill-opacity:1;fill-rule:evenodd;stroke:none"
       transform="matrix(0.35277776,0,0,-0.35277776,179.43021,110.1507)"
       clip-path="url(#clipPath24)" />
    <path
       id="path25"
       d="m 0,0 c -0.132,-0.948 0.405,-1.806 1.143,-1.909 0.738,-0.102 1.488,0.577 1.62,1.525 C 2.895,0.564 2.197,2.702 1.792,2.759 1.387,2.815 0.132,0.948 0,0"
       style="fill:#343532;fill-opacity:1;fill-rule:evenodd;stroke:none"
       transform="matrix(0.35277776,0,0,-0.35277776,178.09777,107.30847)"
       clip-path="url(#clipPath26)" />
    <path
       id="path27"
       d="M 0,0 C -0.263,-0.92 0.148,-1.845 0.864,-2.05 1.581,-2.255 2.419,-1.687 2.682,-0.767 2.945,0.153 2.554,2.368 2.16,2.481 1.767,2.593 0.263,0.92 0,0"
       style="fill:#343532;fill-opacity:1;fill-rule:evenodd;stroke:none"
       transform="matrix(0.35277776,0,0,-0.35277776,175.41203,107.14517)"
       clip-path="url(#clipPath28)" />
    <path
       id="path29"
       d="M 0,0 C -0.263,-0.92 0.148,-1.845 0.864,-2.05 1.581,-2.255 2.419,-1.687 2.682,-0.767 2.945,0.153 2.554,2.368 2.16,2.481 1.767,2.593 0.263,0.92 0,0"
       style="fill:#343532;fill-opacity:1;fill-rule:evenodd;stroke:none"
       transform="matrix(0.35277776,0,0,-0.35277776,176.72712,109.98207)"
       clip-path="url(#clipPath30)" />
    <path
       id="path31"
       d="M 0,0 C -0.263,-0.92 0.148,-1.845 0.864,-2.05 1.581,-2.255 2.419,-1.687 2.682,-0.767 2.945,0.153 2.554,2.368 2.16,2.481 1.767,2.593 0.263,0.92 0,0"
       style="fill:#343532;fill-opacity:1;fill-rule:evenodd;stroke:none"
       transform="matrix(0.35277776,0,0,-0.35277776,180.77186,112.80789)"
       clip-path="url(#clipPath32)" />
    <path
       id="path33"
       d="M 0,0 C 0.089,-0.953 -0.485,-1.786 -1.227,-1.856 -1.97,-1.925 -2.689,-1.213 -2.778,-0.26 -2.867,0.693 -2.074,2.798 -1.666,2.836 -1.259,2.875 -0.089,0.953 0,0"
       style="fill:#343532;fill-opacity:1;fill-rule:evenodd;stroke:none"
       transform="matrix(0.35277776,0,0,-0.35277776,185.75513,110.26433)"
       clip-path="url(#clipPath34)" />
    <path
       id="path35"
       d="M 0,0 C 0.131,-0.948 -0.406,-1.806 -1.145,-1.908 -1.883,-2.01 -2.633,-1.33 -2.764,-0.382 -2.895,0.566 -2.195,2.704 -1.789,2.76 -1.384,2.816 -0.131,0.948 0,0"
       style="fill:#343532;fill-opacity:1;fill-rule:evenodd;stroke:none"
       transform="matrix(0.35277776,0,0,-0.35277776,188.44523,110.1507)"
       clip-path="url(#clipPath36)" />
    <path
       id="path37"
       d="m 0,0 c 0.263,-0.92 -0.148,-1.845 -0.864,-2.05 -0.717,-0.205 -1.555,0.363 -1.818,1.283 -0.263,0.92 0.128,3.135 0.522,3.248 C -1.767,2.593 -0.263,0.92 0,0"
       style="fill:#343532;fill-opacity:1;fill-rule:evenodd;stroke:none"
       transform="matrix(0.35277776,0,0,-0.35277776,191.14832,109.98207)"
       clip-path="url(#clipPath38)" />
    <path
       id="path39"
       d="m 0,0 c 0.263,-0.92 -0.148,-1.845 -0.864,-2.05 -0.717,-0.205 -1.555,0.363 -1.818,1.283 -0.263,0.92 0.128,3.135 0.522,3.248 C -1.767,2.593 -0.263,0.92 0,0"
       style="fill:#343532;fill-opacity:1;fill-rule:evenodd;stroke:none"
       transform="matrix(0.35277776,0,0,-0.35277776,187.10355,112.80789)"
       clip-path="url(#clipPath40)" />
    <path
       id="path41"
       d="M 0,0 C 0.131,-0.948 -0.406,-1.806 -1.145,-1.908 -1.883,-2.01 -2.633,-1.33 -2.764,-0.382 -2.895,0.566 -2.195,2.704 -1.789,2.76 -1.384,2.816 -0.131,0.948 0,0"
       style="fill:#343532;fill-opacity:1;fill-rule:evenodd;stroke:none"
       transform="matrix(0.35277776,0,0,-0.35277776,187.17167,107.39836)"
       clip-path="url(#clipPath42)" />
    <path
       id="path43"
       d="m 0,0 c 0.132,-0.948 -0.405,-1.806 -1.143,-1.909 -0.738,-0.102 -1.488,0.577 -1.62,1.525 -0.132,0.948 0.566,3.086 0.971,3.143 C -1.387,2.815 -0.132,0.948 0,0"
       style="fill:#343532;fill-opacity:1;fill-rule:evenodd;stroke:none"
       transform="matrix(0.35277776,0,0,-0.35277776,189.84163,107.30847)"
       clip-path="url(#clipPath44)" />
    <path
       id="path45"
       d="m 0,0 c 0.263,-0.92 -0.148,-1.845 -0.864,-2.05 -0.717,-0.205 -1.555,0.363 -1.818,1.283 -0.263,0.92 0.128,3.135 0.522,3.248 C -1.767,2.593 -0.263,0.92 0,0"
       style="fill:#343532;fill-opacity:1;fill-rule:evenodd;stroke:none"
       transform="matrix(0.35277776,0,0,-0.35277776,192.52736,107.14517)"
       clip-path="url(#clipPath46)" />
    <path
       id="path47"
       d="m 0,0 h 5.106 v -7.723 c 0.723,1.617 1.776,3.064 3.16,4.34 1.382,1.277 3.041,2.276 4.978,3 1.936,0.723 4.032,1.085 6.287,1.085 3.447,0 6.532,-0.777 9.256,-2.33 2.722,-1.553 4.86,-3.744 6.414,-6.574 1.553,-2.83 2.33,-6.032 2.33,-9.606 v -23.68 h -5.106 v 23.808 c 0,2.722 -0.586,5.116 -1.756,7.18 -1.17,2.064 -2.787,3.68 -4.851,4.851 -2.064,1.17 -4.415,1.756 -7.053,1.756 -2.638,0 -4.989,-0.586 -7.052,-1.756 C 9.648,-6.82 8.031,-8.436 6.862,-10.5 5.691,-12.564 5.106,-14.958 5.106,-17.68 V -41.488 H 0 Z"
       style="fill:#22450a;fill-opacity:1;fill-rule:nonzero;stroke:none"
       transform="matrix(0.35277776,0,0,-0.35277776,87.17222,83.888122)"
       clip-path="url(#clipPath48)" />
    <path
       id="path49"
       d="M 0,0 H 5.298 L 21.255,-35.425 37.148,0 h 5.298 L 23.744,-41.488 h -5.042 z"
       style="fill:#22450a;fill-opacity:1;fill-rule:nonzero;stroke:none"
       transform="matrix(0.35277776,0,0,-0.35277776,100.41229,83.888122)"
       clip-path="url(#clipPath50)" />
    <path
       id="path51"
       d="m 295.054,620.758 h 5.106 V 579.27 h -5.106 z m 0,9.574 h 5.106 v -4.787 h -5.106 z"
       style="fill:#22450a;fill-opacity:1;fill-rule:nonzero;stroke:none"
       transform="matrix(0.35277776,0,0,-0.35277776,12.931125,302.87768)"
       clip-path="url(#clipPath52)" />
    <path
       id="path53"
       d="m 0,0 h 5.106 v -7.723 c 1.191,2.339 3,4.308 5.426,5.904 2.425,1.596 5.234,2.436 8.425,2.521 V -4.34 c -2.681,0 -5.074,-0.597 -7.181,-1.787 C 9.67,-7.319 8.031,-8.968 6.862,-11.074 5.691,-13.18 5.106,-15.617 5.106,-18.382 V -41.488 H 0 Z"
       style="fill:#22450a;fill-opacity:1;fill-rule:nonzero;stroke:none"
       transform="matrix(0.35277776,0,0,-0.35277776,121.07247,83.888122)"
       clip-path="url(#clipPath54)" />
    <path
       id="path55"
       d="m 0,0 c 2.51,1.404 4.457,3.383 5.84,5.936 1.383,2.553 2.075,5.467 2.075,8.744 0,3.277 -0.692,6.192 -2.075,8.745 -1.383,2.553 -3.33,4.532 -5.84,5.936 -2.511,1.404 -5.362,2.106 -8.553,2.106 -3.191,0 -6.043,-0.702 -8.553,-2.106 -2.511,-1.404 -4.458,-3.383 -5.84,-5.936 -1.384,-2.553 -2.075,-5.468 -2.075,-8.745 0,-3.277 0.691,-6.191 2.075,-8.744 1.382,-2.553 3.329,-4.532 5.84,-5.936 2.51,-1.404 5.362,-2.106 8.553,-2.106 3.191,0 6.042,0.702 8.553,2.106 m -19.819,-4.053 c -3.298,1.808 -5.872,4.34 -7.723,7.596 -1.851,3.255 -2.776,6.967 -2.776,11.137 0,4.17 0.925,7.883 2.776,11.138 1.851,3.256 4.425,5.787 7.723,7.596 3.297,1.808 7.053,2.713 11.266,2.713 4.213,0 7.968,-0.905 11.266,-2.713 3.297,-1.809 5.872,-4.34 7.723,-7.596 1.851,-3.255 2.776,-6.968 2.776,-11.138 0,-4.17 -0.925,-7.882 -2.776,-11.137 C 8.585,0.287 6.01,-2.245 2.713,-4.053 -0.585,-5.862 -4.34,-6.766 -8.553,-6.766 c -4.213,0 -7.969,0.904 -11.266,2.713"
       style="fill:#22450a;fill-opacity:1;fill-rule:nonzero;stroke:none"
       transform="matrix(0.35277776,0,0,-0.35277776,137.8455,96.385099)"
       clip-path="url(#clipPath56)" />
    <path
       id="path57"
       d="M 0,0 C -0.012,2.049 0.063,2.657 0.192,4.34 H 0.195 0.192 c 0.297,2.85 1.169,5.362 2.617,7.532 1.446,2.17 3.34,3.84 5.68,5.011 2.34,1.169 4.957,1.755 7.851,1.755 2.723,0 5.191,-0.533 7.404,-1.596 2.212,-1.064 4.053,-2.671 5.521,-4.819 1.468,-2.149 2.372,-4.755 2.713,-7.819 L 16.085,4.372 V 0 h 21.446 c 0.212,4.723 -0.574,8.85 -2.362,12.383 -1.787,3.531 -4.319,6.233 -7.595,8.106 -3.277,1.872 -7.043,2.808 -11.298,2.808 -4.17,0 -7.905,-0.904 -11.202,-2.713 C 1.776,18.776 -0.798,16.244 -2.649,12.989 -4.5,9.734 -5.425,6 -5.425,1.787 c 0,-4.171 0.914,-7.873 2.744,-11.106 1.829,-3.234 4.383,-5.755 7.66,-7.564 3.276,-1.809 7.021,-2.712 11.233,-2.712 5.404,0 9.936,1.446 13.596,4.34 3.659,2.893 6.064,6.808 7.212,11.744 H 31.595 C 30.658,-7 28.819,-9.777 26.074,-11.84 c -2.745,-2.065 -6.032,-3.096 -9.862,-3.096 -2.936,0 -5.607,0.627 -8.01,1.883 -2.405,1.255 -4.33,3.01 -5.776,5.266 C 0.978,-5.532 0.17,-2.936 0,0 h 0.001 z"
       style="fill:#22450a;fill-opacity:1;fill-rule:nonzero;stroke:none"
       transform="matrix(0.35277776,0,0,-0.35277776,72.558611,91.859171)"
       clip-path="url(#clipPath58)" />
    <path
       id="path59"
       d="m 0,0 h 5.106 v -5.936 c 1.063,2.084 2.649,3.712 4.756,4.883 2.106,1.17 4.456,1.755 7.052,1.755 2.937,0 5.543,-0.702 7.819,-2.106 2.276,-1.404 4.011,-3.362 5.202,-5.872 1.191,2.51 2.925,4.468 5.202,5.872 2.276,1.404 4.883,2.106 7.819,2.106 2.936,0 5.553,-0.66 7.851,-1.979 2.298,-1.319 4.085,-3.159 5.362,-5.521 1.276,-2.361 1.914,-5.053 1.914,-8.074 v -26.616 h -5.106 v 26.616 c 0,2.127 -0.458,4.021 -1.372,5.681 -0.915,1.659 -2.192,2.957 -3.83,3.893 -1.638,0.936 -3.5,1.405 -5.585,1.405 -2.042,0 -3.872,-0.469 -5.489,-1.405 -1.618,-0.936 -2.872,-2.234 -3.766,-3.893 -0.893,-1.66 -1.34,-3.554 -1.34,-5.681 v -26.616 h -5.106 v 26.361 c 0,2.212 -0.447,4.17 -1.341,5.872 -0.893,1.701 -2.138,3.021 -3.734,3.957 -1.595,0.936 -3.414,1.405 -5.457,1.405 -2.128,0 -4.011,-0.469 -5.649,-1.405 C 8.67,-6.234 7.393,-7.554 6.479,-9.255 5.563,-10.957 5.106,-12.915 5.106,-15.127 V -41.488 H 0 Z"
       style="fill:#22450a;fill-opacity:1;fill-rule:nonzero;stroke:none"
       transform="matrix(0.35277776,0,0,-0.35277776,143.74476,83.888122)"
       clip-path="url(#clipPath60)" />
    <path
       id="path61"
       d="m 478.296,630.332 h 5.106 V 579.27 h -5.106 z"
       style="fill:#22450a;fill-opacity:1;fill-rule:nonzero;stroke:none"
       transform="matrix(0.35277776,0,0,-0.35277776,12.931125,302.87768)"
       clip-path="url(#clipPath62)" />
    <path
       id="path63"
       d="m 0,0 c 2.51,1.404 4.457,3.383 5.84,5.936 1.383,2.553 2.075,5.467 2.075,8.744 0,3.277 -0.692,6.192 -2.075,8.745 -1.383,2.553 -3.33,4.532 -5.84,5.936 -2.511,1.404 -5.362,2.106 -8.553,2.106 -3.191,0 -6.043,-0.702 -8.553,-2.106 -2.511,-1.404 -4.458,-3.383 -5.84,-5.936 -1.384,-2.553 -2.075,-5.468 -2.075,-8.745 0,-3.277 0.691,-6.191 2.075,-8.744 1.382,-2.553 3.329,-4.532 5.84,-5.936 2.51,-1.404 5.362,-2.106 8.553,-2.106 3.191,0 6.042,0.702 8.553,2.106 m -19.819,-4.053 c -3.298,1.808 -5.872,4.34 -7.723,7.596 -1.851,3.255 -2.776,6.967 -2.776,11.137 0,4.17 0.925,7.883 2.776,11.138 1.851,3.256 4.425,5.787 7.723,7.596 3.297,1.808 7.053,2.713 11.266,2.713 4.213,0 7.968,-0.905 11.266,-2.713 3.297,-1.809 5.872,-4.34 7.723,-7.596 1.851,-3.255 2.776,-6.968 2.776,-11.138 0,-4.17 -0.925,-7.882 -2.776,-11.137 C 8.585,0.287 6.01,-2.245 2.713,-4.053 -0.585,-5.862 -4.34,-6.766 -8.553,-6.766 c -4.213,0 -7.969,0.904 -11.266,2.713"
       style="fill:#22450a;fill-opacity:1;fill-rule:nonzero;stroke:none"
       transform="matrix(0.35277776,0,0,-0.35277776,195.51105,96.385099)"
       clip-path="url(#clipPath64)" />
    <path
       id="path65"
       d="m 0,0 h 5.106 v -7.723 c 0.723,1.617 1.777,3.064 3.16,4.34 1.382,1.277 3.041,2.276 4.978,3 1.936,0.723 4.032,1.085 6.287,1.085 3.447,0 6.532,-0.777 9.256,-2.33 2.722,-1.553 4.86,-3.744 6.414,-6.574 1.553,-2.83 2.33,-6.032 2.33,-9.606 v -23.68 h -5.106 v 23.808 c 0,2.722 -0.586,5.116 -1.756,7.18 -1.17,2.064 -2.787,3.68 -4.851,4.851 -2.064,1.17 -4.415,1.756 -7.053,1.756 -2.638,0 -4.989,-0.586 -7.052,-1.756 C 9.648,-6.82 8.031,-8.436 6.862,-10.5 5.691,-12.564 5.106,-14.958 5.106,-17.68 V -41.488 H 0 Z"
       style="fill:#22450a;fill-opacity:1;fill-rule:nonzero;stroke:none"
       transform="matrix(0.35277776,0,0,-0.35277776,201.52299,83.888122)"
       clip-path="url(#clipPath66)" />
    <path
       id="path67"
       d="M 0,0 C -0.012,2.049 0.063,2.656 0.192,4.34 H 0.195 0.192 c 0.297,2.85 1.169,5.362 2.617,7.532 1.446,2.17 3.34,3.84 5.68,5.011 2.34,1.169 4.957,1.755 7.851,1.755 2.723,0 5.191,-0.533 7.404,-1.596 2.212,-1.064 4.053,-2.671 5.521,-4.819 1.468,-2.149 2.372,-4.755 2.713,-7.819 L 16.085,4.372 V 0 h 21.446 c 0.212,4.723 -0.574,8.85 -2.362,12.383 -1.787,3.531 -4.319,6.233 -7.595,8.106 -3.277,1.872 -7.043,2.808 -11.298,2.808 -4.17,0 -7.905,-0.904 -11.202,-2.713 C 1.776,18.775 -0.798,16.244 -2.649,12.989 -4.5,9.734 -5.425,6 -5.425,1.787 c 0,-4.171 0.914,-7.873 2.744,-11.106 1.829,-3.234 4.383,-5.755 7.66,-7.564 3.276,-1.809 7.021,-2.712 11.233,-2.712 5.404,0 9.936,1.446 13.596,4.34 3.659,2.893 6.064,6.808 7.212,11.744 H 31.595 C 30.658,-7 28.819,-9.777 26.074,-11.84 c -2.745,-2.065 -6.032,-3.096 -9.862,-3.096 -2.936,0 -5.607,0.627 -8.01,1.883 -2.405,1.255 -4.33,3.01 -5.776,5.266 C 0.978,-5.532 0.17,-2.936 0,0 h 0.001 z"
       style="fill:#22450a;fill-opacity:1;fill-rule:nonzero;stroke:none"
       transform="matrix(0.35277776,0,0,-0.35277776,167.04961,91.859137)"
       clip-path="url(#clipPath68)" />
    <path
       id="path69"
       d="m 0,0 v 5.933 h 1.456 l 1.5,-4.739 1.448,4.739 H 5.831 V 0 H 4.929 V 4.98 L 3.4,0 H 2.504 L 0.91,5.052 V 0 Z m -3.589,0 v 5.052 h -1.922 v 0.881 h 4.849 V 5.052 H -2.599 V 0 Z"
       style="fill:#22450a;fill-opacity:1;fill-rule:nonzero;stroke:none"
       transform="matrix(0.35277776,0,0,-0.35277776,216.02886,82.60366)"
       clip-path="url(#clipPath70)" />
  </g>
</svg>
