<?xml version="1.0" encoding="UTF-8" standalone="no"?>
<!-- Created with Inkscape (http://www.inkscape.org/) -->

<svg
   width="35.042217mm"
   height="30.127892mm"
   viewBox="0 0 35.042217 30.127892"
   version="1.1"
   id="svg1"
   xmlns="http://www.w3.org/2000/svg"
   xmlns:svg="http://www.w3.org/2000/svg">
  <defs
     id="defs1">
    <clipPath
       clipPathUnits="userSpaceOnUse"
       id="clipPath72-4">
      <path
         d="M 0,792 H 1224 V 0 H 0 Z"
         transform="translate(-976.579,-509.03501)"
         id="path72-0" />
    </clipPath>
    <clipPath
       clipPathUnits="userSpaceOnUse"
       id="clipPath74-3">
      <path
         d="M 0,792 H 1224 V 0 H 0 Z"
         transform="translate(-976.18772,-504.02212)"
         id="path74-6" />
    </clipPath>
    <clipPath
       clipPathUnits="userSpaceOnUse"
       id="clipPath76-3">
      <path
         d="M 0,792 H 1224 V 0 H 0 Z"
         transform="translate(-993.32462,-499.22911)"
         id="path76-6" />
    </clipPath>
    <clipPath
       clipPathUnits="userSpaceOnUse"
       id="clipPath78-3">
      <path
         d="M 0,792 H 1224 V 0 H 0 Z"
         transform="translate(-987.77042,-501.60052)"
         id="path78-9" />
    </clipPath>
    <clipPath
       clipPathUnits="userSpaceOnUse"
       id="clipPath80-4">
      <path
         d="M 0,792 H 1224 V 0 H 0 Z"
         transform="translate(-982.08055,-505.29451)"
         id="path80-6" />
    </clipPath>
    <clipPath
       clipPathUnits="userSpaceOnUse"
       id="clipPath82-5">
      <path
         d="M 0,792 H 1224 V 0 H 0 Z"
         transform="translate(-976.579,-509.03501)"
         id="path82-6" />
    </clipPath>
    <clipPath
       clipPathUnits="userSpaceOnUse"
       id="clipPath84-9">
      <path
         d="M 0,792 H 1224 V 0 H 0 Z"
         transform="translate(-927.4291,-494.04981)"
         id="path84-1" />
    </clipPath>
    <clipPath
       clipPathUnits="userSpaceOnUse"
       id="clipPath86-7">
      <path
         d="M 0,792 H 1224 V 0 H 0 Z"
         transform="translate(-927.4291,-477.79611)"
         id="path86-4" />
    </clipPath>
    <clipPath
       clipPathUnits="userSpaceOnUse"
       id="clipPath88-7">
      <path
         d="M 0,792 H 1224 V 0 H 0 Z"
         transform="translate(-923.47112,-486.08301)"
         id="path88-2" />
    </clipPath>
    <clipPath
       clipPathUnits="userSpaceOnUse"
       id="clipPath90-2">
      <path
         d="M 0,792 H 1224 V 0 H 0 Z"
         transform="translate(-919.4842,-494.53091)"
         id="path90-9" />
    </clipPath>
    <clipPath
       clipPathUnits="userSpaceOnUse"
       id="clipPath92-7">
      <path
         d="M 0,792 H 1224 V 0 H 0 Z"
         transform="translate(-915.5416,-486.41791)"
         id="path92-1" />
    </clipPath>
    <clipPath
       clipPathUnits="userSpaceOnUse"
       id="clipPath94-5">
      <path
         d="M 0,792 H 1224 V 0 H 0 Z"
         transform="translate(-911.614,-494.79591)"
         id="path94-4" />
    </clipPath>
    <clipPath
       clipPathUnits="userSpaceOnUse"
       id="clipPath96-54">
      <path
         d="M 0,792 H 1224 V 0 H 0 Z"
         transform="translate(-903.6973,-495.27731)"
         id="path96-0" />
    </clipPath>
    <clipPath
       clipPathUnits="userSpaceOnUse"
       id="clipPath98-2">
      <path
         d="M 0,792 H 1224 V 0 H 0 Z"
         transform="translate(-907.57375,-486.91501)"
         id="path98-7" />
    </clipPath>
    <clipPath
       clipPathUnits="userSpaceOnUse"
       id="clipPath100-5">
      <path
         d="M 0,792 H 1224 V 0 H 0 Z"
         transform="translate(-919.49642,-478.58541)"
         id="path100-6" />
    </clipPath>
    <clipPath
       clipPathUnits="userSpaceOnUse"
       id="clipPath102-7">
      <path
         d="M 0,792 H 1224 V 0 H 0 Z"
         transform="translate(-934.1854,-486.08301)"
         id="path102-2" />
    </clipPath>
    <clipPath
       clipPathUnits="userSpaceOnUse"
       id="clipPath104-7">
      <path
         d="M 0,792 H 1224 V 0 H 0 Z"
         transform="translate(-942.115,-486.41791)"
         id="path104-1" />
    </clipPath>
    <clipPath
       clipPathUnits="userSpaceOnUse"
       id="clipPath106-3">
      <path
         d="M 0,792 H 1224 V 0 H 0 Z"
         transform="translate(-950.08285,-486.91501)"
         id="path106-8" />
    </clipPath>
    <clipPath
       clipPathUnits="userSpaceOnUse"
       id="clipPath108-1">
      <path
         d="M 0,792 H 1224 V 0 H 0 Z"
         transform="translate(-938.1601,-478.58541)"
         id="path108-6" />
    </clipPath>
    <clipPath
       clipPathUnits="userSpaceOnUse"
       id="clipPath110-9">
      <path
         d="M 0,792 H 1224 V 0 H 0 Z"
         transform="translate(-938.3608,-494.53091)"
         id="path110-9" />
    </clipPath>
    <clipPath
       clipPathUnits="userSpaceOnUse"
       id="clipPath112-3">
      <path
         d="M 0,792 H 1224 V 0 H 0 Z"
         transform="translate(-946.23115,-494.79591)"
         id="path112-47" />
    </clipPath>
    <clipPath
       clipPathUnits="userSpaceOnUse"
       id="clipPath114-5">
      <path
         d="M 0,792 H 1224 V 0 H 0 Z"
         transform="translate(-954.1477,-495.27731)"
         id="path114-88" />
    </clipPath>
  </defs>
  <g
     id="layer1"
     transform="translate(-121.99431,-90.123736)">
    <path
       id="path71"
       d="m 0,0 0.029,0.052 v 1.361 c 0,1.877 -1.75,3.264 -3.578,2.835 l -1.659,-0.39 v 0 C -5.213,3.857 -5.218,3.856 -5.224,3.854 L -5.657,3.753 -5.659,3.749 c -30.09,-7.685 -60.179,-7.847 -90.268,-0.473 -1.179,0.289 -2.316,-0.59 -2.316,-1.803 V 0.007 C -65.495,-7.989 -32.748,-7.991 0,0"
       style="fill:#22450a;fill-opacity:1;fill-rule:nonzero;stroke:none"
       transform="matrix(0.3055145,0.17638888,0.17638888,-0.3055145,153.51194,108.23015)"
       clip-path="url(#clipPath72-4)" />
    <path
       id="path73"
       d="m 0,0 c 1.964,0.398 3.928,0.822 5.893,1.272 0.071,0.017 0.143,0.03 0.214,0.047 0,-1.692 -0.164,-3.357 -0.451,-4.993 1.976,0.394 3.951,0.807 5.927,1.252 v 0.001 1.361 c 0,1.877 -1.751,3.264 -3.579,2.835 L 6.107,1.329 V 2.68 c 0,1.877 -1.75,3.264 -3.578,2.835 L 0.42,5.02 C 0.42,3.319 0.267,1.646 0,0"
       style="fill:#22450a;fill-opacity:1;fill-rule:nonzero;stroke:none"
       transform="matrix(0.3055145,0.17638888,0.17638888,-0.3055145,152.50818,109.69265)"
       clip-path="url(#clipPath74-3)" />
    <path
       id="path75"
       d="M 0,0 C 0,1.878 -1.751,3.265 -3.578,2.835 L -5.554,2.371 c 0,-21.126 -23.528,-38.51 -52.121,-38.51 -12.621,0 -24.252,3.392 -33.312,8.993 9.605,-7.702 23.399,-12.565 38.623,-12.565 28.726,0 52.364,17.309 52.364,38.344 -0.001,0 -0.002,0 -0.004,0 L 0,-1.361 Z"
       style="fill:#22450a;fill-opacity:1;fill-rule:nonzero;stroke:none"
       transform="matrix(0.3055145,0.17638888,0.17638888,-0.3055145,156.89832,114.17973)"
       clip-path="url(#clipPath76-3)" />
    <path
       id="path77"
       d="m 0,0 c -1.975,-0.445 -3.951,-0.858 -5.926,-1.253 -0.087,-0.493 -0.184,-0.983 -0.295,-1.47 -0.271,-1.183 -0.611,-2.35 -1.024,-3.495 -5.874,-16.302 -25.757,-28.44 -49.112,-28.44 -13.23,0 -25.344,3.899 -34.433,10.238 -2.654,1.852 -5.045,3.914 -7.135,6.146 3.176,-4.303 7.435,-8.116 12.493,-11.243 9.059,-5.602 20.69,-8.993 33.312,-8.993 C -23.528,-38.51 0,-21.126 0,0 Z"
       style="fill:#5fca0f;fill-opacity:1;fill-rule:nonzero;stroke:none"
       transform="matrix(0.3055145,0.17638888,0.17638888,-0.3055145,155.61972,112.47553)"
       clip-path="url(#clipPath78-3)" />
    <path
       id="path79"
       d="m 0,0 c -1.964,-0.45 -3.928,-0.874 -5.893,-1.272 -0.075,-0.464 -0.156,-0.926 -0.252,-1.384 -0.251,-1.207 -0.567,-2.397 -0.955,-3.565 -0.553,-1.667 -1.244,-3.289 -2.057,-4.864 -7.38,-14.301 -25.042,-24.477 -45.451,-24.477 -12.446,0 -23.868,3.789 -32.565,9.984 -2.303,1.641 -4.413,3.452 -6.301,5.406 -0.838,0.867 -1.63,1.763 -2.378,2.685 1.073,-1.558 2.282,-3.054 3.617,-4.481 2.09,-2.232 4.481,-4.294 7.135,-6.146 9.089,-6.339 21.203,-10.238 34.433,-10.238 23.355,0 43.238,12.138 49.112,28.44 0.413,1.145 0.753,2.312 1.023,3.495 0.112,0.487 0.209,0.977 0.296,1.47 0.287,1.637 0.45,3.301 0.45,4.993 C 0.143,0.03 0.071,0.017 0,0"
       style="fill:#ffffff;fill-opacity:1;fill-rule:nonzero;stroke:none"
       transform="matrix(0.3055145,0.17638888,0.17638888,-0.3055145,154.53296,110.34333)"
       clip-path="url(#clipPath80-4)" />
    <path
       id="path81"
       d="m 0,0 c -32.748,-7.991 -65.495,-7.989 -98.243,0.007 0,-7.8 2.913,-15.094 7.893,-21.235 0.747,-0.922 1.539,-1.817 2.377,-2.685 1.889,-1.954 3.998,-3.764 6.302,-5.405 8.697,-6.195 20.118,-9.984 32.564,-9.984 20.409,0 38.072,10.176 45.452,24.477 0.812,1.574 1.504,3.197 2.057,4.864 0.388,1.168 0.703,2.358 0.955,3.564 0.096,0.459 0.177,0.921 0.252,1.384 0.267,1.646 0.42,3.319 0.42,5.02 C 0.019,0.004 0.01,0.002 0,0"
       style="fill:#ff7077;fill-opacity:1;fill-rule:nonzero;stroke:none"
       transform="matrix(0.3055145,0.17638888,0.17638888,-0.3055145,153.51194,108.23015)"
       clip-path="url(#clipPath82-5)" />
    <path
       id="path83"
       d="m 0,0 c 0,-0.995 0.675,-1.802 1.451,-1.802 0.775,0 1.45,0.807 1.45,1.802 0,0.995 -1.025,3.098 -1.45,3.098 C 1.025,3.098 0,0.995 0,0"
       style="fill:#343532;fill-opacity:1;fill-rule:evenodd;stroke:none"
       transform="matrix(0.3055145,0.17638888,0.17638888,-0.3055145,135.85271,104.13885)"
       clip-path="url(#clipPath84-9)" />
    <path
       id="path85"
       d="m 0,0 c 0,-0.995 0.675,-1.802 1.451,-1.802 0.775,0 1.45,0.807 1.45,1.802 0,0.995 -1.025,3.098 -1.45,3.098 C 1.025,3.098 0,0.995 0,0"
       style="fill:#343532;fill-opacity:1;fill-rule:evenodd;stroke:none"
       transform="matrix(0.3055145,0.17638888,0.17638888,-0.3055145,132.98574,109.1046)"
       clip-path="url(#clipPath86-7)" />
    <path
       id="path87"
       d="m 0,0 c -0.093,-0.991 0.505,-1.857 1.276,-1.93 0.772,-0.072 1.52,0.669 1.612,1.66 C 2.981,0.721 2.156,2.91 1.733,2.95 1.309,2.989 0.093,0.991 0,0"
       style="fill:#343532;fill-opacity:1;fill-rule:evenodd;stroke:none"
       transform="matrix(0.3055145,0.17638888,0.17638888,-0.3055145,133.23824,105.87468)"
       clip-path="url(#clipPath88-7)" />
    <path
       id="path89"
       d="M 0,0 C -0.136,-0.986 0.423,-1.878 1.19,-1.984 1.958,-2.09 2.738,-1.383 2.874,-0.397 3.01,0.589 2.283,2.812 1.861,2.87 1.439,2.929 0.136,0.986 0,0"
       style="fill:#343532;fill-opacity:1;fill-rule:evenodd;stroke:none"
       transform="matrix(0.3055145,0.17638888,0.17638888,-0.3055145,133.51029,102.59047)"
       clip-path="url(#clipPath90-2)" />
    <path
       id="path91"
       d="M 0,0 C -0.136,-0.986 0.422,-1.878 1.19,-1.984 1.958,-2.09 2.737,-1.383 2.874,-0.397 3.01,0.589 2.282,2.812 1.861,2.87 1.439,2.929 0.136,0.986 0,0"
       style="fill:#343532;fill-opacity:1;fill-rule:evenodd;stroke:none"
       transform="matrix(0.3055145,0.17638888,0.17638888,-0.3055145,130.87472,104.37368)"
       clip-path="url(#clipPath92-7)" />
    <path
       id="path93"
       d="M 0,0 C -0.137,-0.986 0.421,-1.878 1.188,-1.985 1.956,-2.092 2.736,-1.386 2.873,-0.4 3.01,0.586 2.285,2.81 1.863,2.869 1.442,2.927 0.137,0.986 0,0"
       style="fill:#343532;fill-opacity:1;fill-rule:evenodd;stroke:none"
       transform="matrix(0.3055145,0.17638888,0.17638888,-0.3055145,131.15257,101.12129)"
       clip-path="url(#clipPath94-5)" />
    <path
       id="path95"
       d="m 0,0 c -0.274,-0.957 0.154,-1.919 0.899,-2.132 0.745,-0.213 1.616,0.377 1.89,1.334 C 3.063,0.159 2.656,2.463 2.247,2.58 1.837,2.697 0.274,0.957 0,0"
       style="fill:#343532;fill-opacity:1;fill-rule:evenodd;stroke:none"
       transform="matrix(0.3055145,0.17638888,0.17638888,-0.3055145,128.81881,99.577796)"
       clip-path="url(#clipPath96-54)" />
    <path
       id="path97"
       d="m 0,0 c -0.274,-0.957 0.154,-1.919 0.899,-2.132 0.745,-0.213 1.616,0.377 1.89,1.334 C 3.063,0.159 2.656,2.463 2.247,2.58 1.837,2.697 0.274,0.957 0,0"
       style="fill:#343532;fill-opacity:1;fill-rule:evenodd;stroke:none"
       transform="matrix(0.3055145,0.17638888,0.17638888,-0.3055145,128.52811,102.81637)"
       clip-path="url(#clipPath98-2)" />
    <path
       id="path99"
       d="m 0,0 c -0.274,-0.957 0.154,-1.919 0.899,-2.132 0.745,-0.213 1.616,0.377 1.89,1.334 C 3.063,0.159 2.656,2.463 2.247,2.58 1.837,2.697 0.274,0.957 0,0"
       style="fill:#343532;fill-opacity:1;fill-rule:evenodd;stroke:none"
       transform="matrix(0.3055145,0.17638888,0.17638888,-0.3055145,130.70141,107.46421)"
       clip-path="url(#clipPath100-5)" />
    <path
       id="path101"
       d="m 0,0 c 0.093,-0.991 -0.505,-1.857 -1.276,-1.93 -0.772,-0.072 -1.52,0.669 -1.612,1.66 -0.093,0.991 0.732,3.18 1.155,3.22 C -1.309,2.989 -0.093,0.991 0,0"
       style="fill:#343532;fill-opacity:1;fill-rule:evenodd;stroke:none"
       transform="matrix(0.3055145,0.17638888,0.17638888,-0.3055145,136.5116,107.76456)"
       clip-path="url(#clipPath102-7)" />
    <path
       id="path103"
       d="M 0,0 C 0.136,-0.986 -0.422,-1.878 -1.19,-1.984 -1.958,-2.09 -2.738,-1.383 -2.874,-0.397 -3.01,0.589 -2.282,2.812 -1.861,2.87 -1.439,2.929 -0.136,0.986 0,0"
       style="fill:#343532;fill-opacity:1;fill-rule:evenodd;stroke:none"
       transform="matrix(0.3055145,0.17638888,0.17638888,-0.3055145,138.99328,109.06094)"
       clip-path="url(#clipPath104-7)" />
    <path
       id="path105"
       d="m 0,0 c 0.274,-0.957 -0.154,-1.919 -0.899,-2.132 -0.745,-0.213 -1.616,0.377 -1.89,1.334 -0.274,0.957 0.133,3.261 0.542,3.378 C -1.837,2.697 -0.274,0.957 0,0"
       style="fill:#343532;fill-opacity:1;fill-rule:evenodd;stroke:none"
       transform="matrix(0.3055145,0.17638888,0.17638888,-0.3055145,141.51526,110.3145)"
       clip-path="url(#clipPath106-3)" />
    <path
       id="path107"
       d="m 0,0 c 0.274,-0.957 -0.154,-1.919 -0.899,-2.132 -0.745,-0.213 -1.616,0.377 -1.89,1.334 -0.274,0.957 0.133,3.261 0.542,3.378 C -1.837,2.697 -0.274,0.957 0,0"
       style="fill:#343532;fill-opacity:1;fill-rule:evenodd;stroke:none"
       transform="matrix(0.3055145,0.17638888,0.17638888,-0.3055145,136.40343,110.75628)"
       clip-path="url(#clipPath108-1)" />
    <path
       id="path109"
       d="M 0,0 C 0.136,-0.986 -0.422,-1.878 -1.19,-1.984 -1.958,-2.09 -2.737,-1.383 -2.874,-0.397 -3.01,0.589 -2.282,2.812 -1.861,2.87 -1.439,2.929 -0.136,0.986 0,0"
       style="fill:#343532;fill-opacity:1;fill-rule:evenodd;stroke:none"
       transform="matrix(0.3055145,0.17638888,0.17638888,-0.3055145,139.27737,105.9201)"
       clip-path="url(#clipPath110-9)" />
    <path
       id="path111"
       d="M 0,0 C 0.137,-0.986 -0.421,-1.878 -1.188,-1.985 -1.956,-2.092 -2.736,-1.386 -2.873,-0.4 -3.01,0.586 -2.285,2.81 -1.863,2.869 -1.442,2.927 -0.137,0.986 0,0"
       style="fill:#343532;fill-opacity:1;fill-rule:evenodd;stroke:none"
       transform="matrix(0.3055145,0.17638888,0.17638888,-0.3055145,141.72861,107.22737)"
       clip-path="url(#clipPath112-3)" />
    <path
       id="path113"
       d="m 0,0 c 0.274,-0.957 -0.154,-1.919 -0.899,-2.132 -0.745,-0.213 -1.616,0.377 -1.89,1.334 -0.274,0.957 0.133,3.261 0.542,3.378 C -1.837,2.697 -0.274,0.957 0,0"
       style="fill:#343532;fill-opacity:1;fill-rule:evenodd;stroke:none"
       transform="matrix(0.3055145,0.17638888,0.17638888,-0.3055145,144.23214,108.47669)"
       clip-path="url(#clipPath114-5)" />
  </g>
</svg>
